<svg id="eaBkyx7zT0g1" xmlns="http://www.w3.org/2000/svg" xmlns:xlink="http://www.w3.org/1999/xlink" viewBox="0 0 16 16" shape-rendering="geometricPrecision" text-rendering="geometricPrecision"><g id="eaBkyx7zT0g2" clip-path="url(#eaBkyx7zT0g12)"><g id="eaBkyx7zT0g3"><g id="eaBkyx7zT0g4" clip-path="url(#eaBkyx7zT0g10)"><g id="eaBkyx7zT0g5"><g id="eaBkyx7zT0g6"><g id="eaBkyx7zT0g7"><g id="eaBkyx7zT0g8"><path id="eaBkyx7zT0g9" d="M6.4205,4.0015L3.428,1.009C3.3455,0.9265,3.3,0.8165,3.3,0.6995C3.3,0.582,3.3455,0.4725,3.428,0.39L3.69,0.128C3.7725,0.0455,3.8825,0,3.9995,0C4.1165,0,4.2265,0.0455,4.309,0.128L7.8725,3.691C7.955,3.774,8,3.884,8,4.0015C8,4.1195,7.955,4.2295,7.8725,4.3125L4.312,7.872C4.23,7.9545,4.12,8,4.003,8C3.8855,8,3.7755,7.9545,3.6935,7.872L3.431,7.61C3.2605,7.4395,3.2605,7.1615,3.431,6.991L6.4205,4.0015Z" transform="matrix(-1 0 0 -1 13.65 12)" fill="rgb(255,255,255)" stroke="none" stroke-width="1" stroke-miterlimit="1"/></g></g></g></g><clipPath id="eaBkyx7zT0g10"><rect id="eaBkyx7zT0g11" width="16" height="16" rx="0" ry="0" fill="rgb(255,255,255)" stroke="none" stroke-width="1" stroke-miterlimit="1"/></clipPath></g></g><clipPath id="eaBkyx7zT0g12"><rect id="eaBkyx7zT0g13" width="16" height="16" rx="0" ry="0" fill="rgb(0,0,0)" stroke="none" stroke-width="1" stroke-miterlimit="1"/></clipPath></g></svg>